<svg xmlns="http://www.w3.org/2000/svg" width="16" height="16" viewBox="0 0 128 128">
  <defs>
    <linearGradient id="g" x1="20%" y1="15%" x2="85%" y2="90%">
      <stop offset="0%" stop-color="#b491ff"/>
      <stop offset="50%" stop-color="#8467ff"/>
      <stop offset="100%" stop-color="#5635d8"/>
    </linearGradient>
    <linearGradient id="glow" x1="0%" y1="0%" x2="100%" y2="100%">
      <stop offset="0%" stop-color="#ffffff" stop-opacity="0.9"/>
      <stop offset="100%" stop-color="#ffffff" stop-opacity="0"/>
    </linearGradient>
  </defs>
  <rect x="12" y="12" width="104" height="104" rx="28" fill="url(#g)"/>
  <circle cx="46" cy="46" r="18" fill="rgba(255,255,255,0.22)"/>
  <circle cx="82" cy="82" r="22" fill="rgba(255,255,255,0.16)"/>
  <path d="M46 34h30c15 0 26 10.4 26 25s-11 25-26 25H62l10 16H56l-10-16H36V34h10zm28 36c8.2 0 14-5.4 14-11s-5.8-11-14-11H48v22h26z" fill="#fff"/>
  <rect x="20" y="20" width="88" height="36" fill="url(#glow)" rx="18"/>
</svg>
